<svg width="511" height="380" viewBox="0 0 511 380" fill="none" xmlns="http://www.w3.org/2000/svg">
<g clip-path="url(#clip0_48_332)">
<path d="M470.809 92.3636C412.872 11.5738 290.484 -21.1981 170.119 14.098C106.485 32.758 45.1307 70.146 14.725 142.541C-39.6285 271.956 74.4935 313.287 149.117 326.46C185.201 332.83 219.186 343.53 250.241 358.097C306.113 384.306 405.01 407.53 479.586 298.359C533.638 219.231 509.4 146.178 470.809 92.3636Z" fill="#F2F2F2"/>
<path d="M134.911 108.347C134.749 107.064 134.422 105.806 133.936 104.607C133.874 104.38 133.766 104.168 133.618 103.986C133.47 103.803 133.286 103.654 133.077 103.546C132.798 103.474 132.505 103.47 132.225 103.537L127.849 104.208C127.482 104.225 127.131 104.361 126.85 104.597C126.28 105.197 126.841 106.165 126.824 106.993C126.804 107.925 125.978 108.682 125.082 108.932C124.167 109.117 123.224 109.105 122.314 108.897L116.195 107.945C117.997 107.368 119.601 106.295 120.824 104.849C121.629 103.893 122.058 102.108 120.894 101.655C120.548 101.56 120.188 101.531 119.831 101.57C117.059 101.591 114.877 99.2717 112.281 98.2948C110.62 97.7099 108.817 97.6664 107.13 98.1704C105.442 98.6745 103.957 99.7003 102.887 101.101L106.147 101.259C106.453 101.242 106.757 101.323 107.015 101.491C107.729 102.079 106.841 103.209 106.942 104.13C107.072 105.326 108.658 105.582 109.853 105.703C111.048 105.824 112.565 106.797 111.99 107.854C105.983 109.928 99.8694 103.801 93.5605 104.555C91.9638 104.746 90.456 105.375 88.897 105.77C79.3738 108.184 69.5285 101.742 59.8 103.106C57.6373 103.476 55.5117 104.038 53.4484 104.785C52.1243 105.221 50.7432 105.692 49.7812 106.702C48.8191 107.712 48.453 109.44 49.3644 110.497C46.8523 110.704 44.3235 110.463 41.8954 109.785C42.552 110.151 43.0982 110.687 43.4768 111.337C43.8553 111.988 44.0522 112.728 44.0467 113.481C40.1244 114.122 36.306 115.288 32.6942 116.949C33.3683 118.073 34.1556 119.124 35.0439 120.086L30.0784 123.283C31.756 123.706 32.6233 125.999 31.6477 127.43C33.3872 126.655 34.4652 124.649 36.3253 124.242C37.5439 123.976 38.7838 124.475 39.9398 124.945C41.0959 125.414 42.3664 125.869 43.5632 125.517C44.7599 125.164 45.6426 123.609 44.8821 122.619C49.9973 121.123 55.2836 120.296 60.6102 120.156C61.0211 120.105 61.4379 120.184 61.8014 120.383C62.4947 120.865 62.3123 121.906 62.275 122.751C62.2376 123.596 62.8947 124.706 63.6482 124.325C62.7617 125.096 63.5196 126.546 64.3701 127.356C65.2206 128.166 66.2457 129.284 65.725 130.338C65.5891 130.613 65.3586 130.833 65.2279 131.11C64.8419 131.929 65.4547 132.884 66.1775 133.428C66.9004 133.972 67.7858 134.352 68.2879 135.106C68.79 135.859 68.562 137.177 67.6641 137.283L65.1121 134.036C64.2402 134.942 63.6424 136.077 63.3881 137.309C66.0944 139.526 66.5014 144.039 64.2358 146.706C63.078 148.069 61.4315 148.897 59.9945 149.96C58.5575 151.024 57.2278 152.537 57.2314 154.327C57.2377 157.42 56.9855 160.293 58.1419 163.16C60.2743 168.447 62.7363 173.594 65.5131 178.571C66.2424 179.878 67.1848 181.31 68.6621 181.535C66.7951 176.981 65.1145 172.355 63.6202 167.659C64.5934 167.663 65.7182 167.74 66.2887 168.53C66.7612 169.185 66.6597 170.074 66.8065 170.868C66.9932 171.638 67.3046 172.371 67.7282 173.04L76.6435 188.954C77.3826 190.273 78.2303 191.689 79.6428 192.223C80.5459 192.565 81.5907 192.501 82.4219 192.992C83.0734 193.378 83.5123 194.062 84.1765 194.425C86.0545 195.452 88.6661 193.483 90.4212 194.709C90.9231 195.059 91.2423 195.616 91.7047 196.017C93.3257 197.424 95.9848 196.483 97.856 197.532C99.062 198.208 99.687 199.561 100.33 200.787C101.942 203.857 104.549 206.865 108.002 207.109C109.086 207.186 110.194 206.98 111.255 207.222C112.315 207.464 113.359 208.391 113.188 209.467C112.897 211.312 113.806 213.332 113.562 215.184C113.117 218.558 108.342 220.04 107.932 223.418C107.842 224.158 107.983 224.921 107.807 225.645C107.591 226.532 106.927 227.255 106.69 228.137C106.242 229.808 107.437 231.471 108.75 232.596C110.063 233.72 111.628 234.69 112.346 236.264C113.105 237.927 112.732 239.867 112.979 241.679C113.517 245.636 116.927 248.569 120.437 250.46C121.506 251.036 122.654 251.594 123.346 252.593C124.25 253.898 124.16 255.618 124.461 257.177C125.2 260.995 128.407 264.14 128.498 268.028C128.563 270.791 127.03 273.298 126.114 275.906C125.256 278.404 124.945 281.058 125.204 283.687C125.462 286.317 126.283 288.859 127.611 291.142C128.296 292.301 129.116 293.394 129.6 294.65C130.465 296.892 130.184 299.441 130.982 301.708C132.036 304.706 134.932 307.182 134.655 310.348C135.97 313.084 138.873 314.428 141.793 315.243L147.026 316.703C148.028 316.982 149.075 317.264 150.095 317.061C151.116 316.859 152.089 316.01 152.063 314.968C149.497 314.388 146.848 313.772 144.733 312.205C142.618 310.638 141.169 307.847 141.971 305.337C142.343 304.173 143.135 302.829 142.382 301.867C141.951 301.316 141.163 301.172 140.677 300.67C139.919 299.886 140.179 298.569 140.725 297.624C141.27 296.679 142.058 295.835 142.277 294.766C142.388 294.168 142.314 293.55 142.065 292.995C141.815 292.44 141.403 291.975 140.882 291.662C141.853 291.295 142.735 290.728 143.472 289.997C144.153 289.218 144.468 288.016 143.932 287.13C145.523 287.332 147.402 287.431 148.446 286.211C149.28 285.237 149.223 283.781 148.894 282.541C148.564 281.301 148.007 280.096 147.99 278.813C151.66 278.987 155.339 278.862 158.989 278.439C158.461 276.658 157.262 275.152 155.645 274.242C157.298 273.962 158.804 271.979 159.326 270.382C159.849 268.785 159.715 267.046 159.393 265.397C159.269 264.973 159.252 264.524 159.343 264.092C159.529 263.497 160.112 263.134 160.651 262.824L168.857 258.101C169.347 257.856 169.791 257.527 170.169 257.131C171.029 256.119 170.902 254.591 170.462 253.337C170.021 252.084 169.316 250.905 169.147 249.587C168.64 245.645 172.851 242.816 174.272 239.105C174.83 237.649 174.943 236.066 175.051 234.51C175.167 232.839 175.176 230.897 173.895 229.82C172.668 228.788 170.75 229.018 169.465 228.058C168.287 227.177 167.881 225.467 166.595 224.756C165.426 224.111 163.961 224.521 162.662 224.218C160.374 223.683 158.934 221.04 156.597 220.796C155.279 220.658 153.787 221.303 152.706 220.534C151.754 219.856 151.716 218.493 151.535 217.337C151.217 215.54 150.358 213.884 149.072 212.591C147.786 211.299 146.136 210.432 144.344 210.108C142.985 209.89 141.505 209.973 140.349 209.224C139.178 208.466 138.641 207.047 137.721 205.997C136.239 204.305 133.904 203.704 131.717 203.189L122.821 201.093C121.241 200.721 119.206 200.524 118.358 201.91C118.108 202.438 117.93 202.998 117.831 203.574C117.513 204.616 116.874 205.53 116.005 206.186C115.136 206.841 114.083 207.203 112.996 207.221C112.25 205.946 111.042 205.01 109.624 204.606C108.722 204.354 107.756 204.326 106.896 203.956C106.427 203.727 106.01 203.404 105.671 203.008C105.331 202.612 105.075 202.15 104.92 201.651C104.764 201.153 104.711 200.627 104.765 200.108C104.819 199.588 104.979 199.085 105.233 198.629C105.746 197.714 105.944 196.655 105.797 195.616C105.65 194.577 105.165 193.615 104.418 192.879C102.905 191.518 100.717 191.189 98.6882 191.326C98.1569 190.164 99.0452 188.853 100.003 188.009C100.96 187.165 102.122 186.335 102.331 185.074C102.659 183.091 100.134 181.585 98.2164 182.176C96.2992 182.767 95.0756 184.633 94.2667 186.473C93.8026 187.528 93.408 188.64 92.6759 189.53C91.9439 190.42 90.7649 191.057 89.6498 190.771C88.0712 190.367 87.4615 188.487 87.1121 186.893C86.6433 184.753 86.1718 182.583 86.2701 180.395C86.3683 178.206 87.1045 175.959 88.7149 174.478C91.3391 172.064 95.3649 172.3 98.9065 172.685C98.0698 171.741 98.2766 170.148 99.1718 169.259C99.6444 168.838 100.212 168.54 100.826 168.388C101.44 168.237 102.082 168.238 102.695 168.392C103.762 168.615 104.724 169.191 105.424 170.027C106.431 171.257 106.717 172.917 107.478 174.313C108.238 175.708 109.949 176.899 111.349 176.15C112.558 175.503 112.75 173.823 112.449 172.483C112.148 171.143 111.509 169.84 111.618 168.47C111.826 165.858 114.529 164.285 116.914 163.209C119.299 162.133 122.03 160.686 122.408 158.092C122.42 157.585 122.516 157.082 122.691 156.605C122.955 156.184 123.323 155.838 123.758 155.599C130.719 150.99 137.795 146.324 145.751 143.805C146.165 143.674 146.213 143.82 146.635 143.717C147.226 143.375 146.834 142.429 146.268 142.048C145.702 141.667 144.946 141.375 144.802 140.707C144.697 140.216 144.985 139.734 145.06 139.237C145.245 138.017 143.788 136.89 142.656 137.378C142.017 136.53 143.282 135.544 144.304 135.262C147.375 134.416 150.526 133.9 153.706 133.723C154.073 133.665 154.449 133.729 154.776 133.906C155.31 134.276 155.242 135.127 154.863 135.656C154.485 136.185 153.896 136.517 153.424 136.965C152.909 137.468 152.541 138.103 152.362 138.801C152.182 139.499 152.197 140.233 152.406 140.923C154.065 141.769 155.87 142.64 157.708 142.342C159.547 142.044 161.179 139.974 160.314 138.321C159.51 136.782 157.093 136.434 156.677 134.747C156.19 132.772 158.981 131.015 158.352 129.08C158.077 128.233 157.234 127.734 156.587 127.122C155.824 126.372 155.304 125.408 155.097 124.356C154.89 123.305 155.005 122.215 155.427 121.23C154.374 121.416 153.291 121.346 152.27 121.026C151.249 120.706 150.32 120.145 149.56 119.391C148.157 117.972 147.038 115.733 145.045 115.796C143.216 115.855 141.641 117.992 139.931 117.34C139.511 117.18 139.067 116.853 138.66 117.045C138.526 117.131 138.414 117.248 138.332 117.384C138.25 117.521 138.2 117.675 138.185 117.834C137.751 119.915 138.498 122.287 137.366 124.086C136.134 126.044 133.284 126.315 131.79 128.08C130.98 129.039 130.665 130.33 129.92 131.34C129.175 132.35 127.593 132.992 126.699 132.112C127.138 131.207 127.258 130.178 127.039 129.196C126.82 128.213 126.275 127.334 125.492 126.702C124.662 126.159 123.767 125.722 122.828 125.403C121.779 124.958 120.781 124.401 119.852 123.741C119.386 123.459 119.008 123.053 118.759 122.569C118.562 121.962 118.589 121.305 118.834 120.716C119.287 119.413 120.087 118.259 121.147 117.378C122.208 116.498 123.488 115.924 124.85 115.719C126.041 115.557 127.427 115.614 128.215 114.705C128.632 114.224 128.851 113.496 129.456 113.301C129.843 113.223 130.245 113.273 130.602 113.442L135.046 115.01C135.542 115.235 136.088 115.325 136.63 115.273C136.898 115.236 137.143 115.1 137.316 114.89C137.488 114.68 137.574 114.413 137.558 114.142C137.416 113.402 136.28 113.047 136.384 112.301C136.442 112.06 136.571 111.841 136.756 111.675C138.36 109.964 140.322 108.629 142.5 107.767C144.679 106.905 147.022 106.536 149.359 106.687C149.92 107.61 149.033 108.704 148.295 109.492C147.557 110.28 146.963 111.689 147.856 112.295C148.222 112.483 148.629 112.574 149.04 112.562C150.134 112.711 151.198 113.034 152.19 113.52C153.726 114.19 155.232 114.923 156.709 115.719C156.579 114.743 156.454 113.715 156.823 112.802C157.192 111.89 158.242 111.174 159.158 111.529C160.041 111.872 160.494 113.043 161.435 113.151C162.69 113.294 163.185 111.436 162.661 110.284C162.136 109.133 161.099 108.169 161.012 106.906C160.954 106.054 161.277 104.997 160.598 104.481C160.356 104.327 160.082 104.23 159.797 104.2L142.84 101.073C141.834 100.887 140.379 101.03 140.334 102.055C140.309 102.627 140.819 103.193 140.593 103.719C140.352 104.28 139.56 104.229 138.983 104.428C138.088 104.736 137.639 105.801 137.725 106.745C137.883 107.684 138.245 108.575 138.787 109.357C137.684 108.895 136.014 108.81 134.911 108.347Z" fill="#3F3D56"/>
<path d="M121.382 93.9236C120.313 93.569 119.161 93.5525 118.082 93.8763C117.003 94.2001 116.049 94.8485 115.35 95.7337C115.071 96.1021 114.837 96.6099 115.071 97.0088C115.406 97.5806 116.259 97.3548 116.889 97.1502C117.814 96.8189 118.821 96.7948 119.761 97.0815C120.352 97.2849 120.881 97.6443 121.475 97.84C121.764 97.9612 122.08 98.0012 122.39 97.9558C122.7 97.9104 122.992 97.7813 123.235 97.5824C123.642 97.1659 123.668 96.5185 123.668 95.9353C123.697 95.7402 123.681 95.5412 123.623 95.3528C123.564 95.1645 123.465 94.9915 123.331 94.8466C123.094 94.7087 122.827 94.6295 122.553 94.6157C121.938 94.5018 121.383 94.1766 120.982 93.6963" fill="#3F3D56"/>
<path d="M127.496 92.2177C127.257 92.2047 127.018 92.2535 126.803 92.3596C126.588 92.4656 126.404 92.6253 126.268 92.8233C126.133 93.0213 126.05 93.251 126.029 93.4902C126.007 93.7293 126.048 93.97 126.146 94.189C126.881 94.3899 127.649 94.44 128.403 94.3365C128.78 94.278 129.13 94.1091 129.411 93.8511C129.692 93.5931 129.89 93.2577 129.981 92.887C129.093 93.049 128.176 92.8735 127.409 92.3948" fill="#3F3D56"/>
<path d="M148.01 89.3687C146.009 89.7949 144.066 90.4563 142.221 91.3392C143.091 91.6742 143.831 92.2805 144.331 93.0686C144.831 93.8567 145.065 94.7849 144.999 95.7164C144.921 96.0741 144.93 96.4453 145.025 96.7987C145.238 97.3151 145.854 97.5089 146.395 97.6415C147.368 97.9382 148.384 98.0682 149.401 98.0259C149.909 97.9992 150.403 97.846 150.837 97.58C151.271 97.314 151.633 96.9437 151.888 96.5026C152.035 96.0839 152.208 95.6747 152.406 95.2772C153.704 93.296 157.56 95.6916 158.954 93.7767C159.445 93.1022 159.4 92.0868 160.04 91.5523C160.371 91.3195 160.755 91.1727 161.156 91.1254C163.959 90.5673 166.791 90.1632 169.637 89.915C170.986 89.7973 172.745 89.312 172.756 87.9552C167.675 86.9552 162.407 87.6654 157.77 89.9753C156.1 90.8138 153.89 92.5775 152.281 91.4659C151.679 91.0497 151.709 89.929 150.879 89.461C150.032 88.9825 148.909 89.1771 148.01 89.3687Z" fill="#3F3D56"/>
<path d="M164.625 92.4825L167.01 92.9417C166.571 92.9222 166.133 92.9968 165.725 93.1604C165.317 93.324 164.949 93.573 164.644 93.8906C164.34 94.2082 164.107 94.5873 163.96 95.0024C163.814 95.4175 163.757 95.8592 163.794 96.298C166.028 97.0457 168.463 96.3181 170.815 96.4175C173.168 96.5169 175.906 98.201 175.504 100.526C175.382 101.229 174.977 101.932 175.188 102.613C175.336 103.091 175.756 103.43 175.993 103.87C176.488 104.787 176.093 105.946 175.468 106.78C174.844 107.613 174.005 108.278 173.457 109.163C172.093 111.366 172.868 114.214 173.68 116.675C173.915 117.604 174.348 118.472 174.951 119.217C176.154 120.499 178.114 120.611 179.87 120.636C181.148 120.655 182.611 120.592 183.419 119.6C184.475 118.304 183.737 116.283 184.431 114.763C185.062 113.382 186.669 112.79 188.126 112.37C190.793 111.6 193.512 110.946 196.034 109.784C199.166 108.34 202.093 106.091 205.535 105.905C206.501 105.853 207.49 105.967 208.421 105.702C209.351 105.437 210.234 104.631 210.164 103.664C210.104 102.838 209.407 102.232 208.862 101.609C208.317 100.987 207.889 100.029 208.39 99.3707L217.412 97.6819C216.773 95.9353 216.275 93.635 217.744 92.4982C218.274 92.088 218.984 91.924 219.436 91.4281C220.205 90.5829 219.818 89.127 218.93 88.4082C218.042 87.6894 216.841 87.5225 215.703 87.4278C211.747 87.0986 207.768 87.3161 203.804 87.5339C196.056 87.9595 188.307 88.3851 180.559 88.8107C178.999 88.8964 177.198 88.7655 175.768 89.2987C174.557 89.7502 173.696 90.5789 172.31 90.8701C169.753 91.4076 166.939 91.0438 164.625 92.4825Z" fill="#3F3D56"/>
<path d="M207.352 111.374C207.109 111.335 206.861 111.392 206.658 111.532C206.524 111.679 206.444 111.869 206.432 112.068C206.278 112.948 206.462 113.854 206.946 114.604C207.192 114.972 207.533 115.267 207.931 115.458C208.33 115.65 208.773 115.731 209.214 115.693C210.288 115.556 211.079 114.638 212.066 114.19C213.588 113.5 220.05 112.425 215.58 110.005C214.04 109.17 213.044 109.907 211.83 110.456C210.448 111.164 208.9 111.482 207.352 111.374Z" fill="#3F3D56"/>
<path d="M246.507 91.1162C245.985 91.3299 245.548 91.7108 245.265 92.1994C245.134 92.4475 245.104 92.7364 245.18 93.0063C245.256 93.2762 245.433 93.5064 245.674 93.6493C245.869 93.7202 246.076 93.753 246.283 93.7461L248.405 93.8097C249.307 93.8367 250.433 94.0291 250.676 94.8998C250.855 95.5463 250.453 96.3771 250.939 96.8392C251.147 97.001 251.398 97.099 251.661 97.1214C252.36 97.3013 253.09 97.325 253.799 97.1905C255.343 96.7755 254.532 95.8309 255.018 94.9899C255.763 93.7031 255.634 94.4821 256.945 93.7446C257.913 93.2 259.165 92.212 258.357 90.8238C256.951 88.4099 248.581 90.0792 246.507 91.1162Z" fill="#3F3D56"/>
<path d="M288.398 89.9026L287.166 90.0674C284.387 90.439 281.592 90.8141 278.915 91.6504C280.074 92.1095 281.289 92.4084 282.528 92.5389C283.211 92.5724 283.888 92.669 284.553 92.8273C285.735 93.1799 286.926 94.0907 288.068 93.6242C288.777 93.3349 289.008 92.5959 289.594 92.2043C289.999 91.9339 291.536 91.4962 291.708 91.2233C293.096 89.0168 289.466 89.7599 288.398 89.9026Z" fill="#3F3D56"/>
<path d="M293.81 95.5156C292.164 96.4381 290.636 97.559 289.262 98.8533C288.683 99.3988 288.091 100.077 288.144 100.872C288.214 101.928 289.337 102.541 290.309 102.953L294.249 104.625C294.727 103.95 294.29 103.018 293.796 102.355C293.302 101.691 292.715 100.924 292.933 100.125C293.182 99.2144 294.29 98.9039 295.22 98.747C296.734 98.4913 300.82 98.5118 300.329 96.066C299.75 93.1842 295.33 94.6641 293.81 95.5156Z" fill="#3F3D56"/>
<path d="M293.018 258.603C292.643 259.691 292.607 260.972 293.256 261.922C293.984 262.989 295.441 263.386 296.701 263.116C297.957 262.781 299.076 262.06 299.9 261.054C300.655 260.212 301.275 259.258 301.74 258.227C302.39 256.62 302.847 254.941 303.104 253.226L304.328 246.79C304.601 245.352 304.59 240.942 301.952 242.379C301.231 242.771 299.563 245.87 298.807 246.749C297.446 248.333 297.266 249.87 296.549 251.789C295.652 254.192 293.848 256.195 293.018 258.603Z" fill="#3F3D56"/>
<path d="M432.361 291.538C431.498 291.2 430.66 290.801 429.854 290.342C429.046 292.568 428.616 294.914 428.583 297.283L434.49 293.933C435.379 293.429 436.386 292.729 436.367 291.706C436.375 291.58 436.349 291.454 436.291 291.341C436.234 291.228 436.147 291.133 436.04 291.066C435.909 291.013 435.766 290.996 435.626 291.017C434.75 291.09 433.952 291.522 433.125 291.822C432.299 292.123 431.333 292.281 430.575 291.836" fill="#3F3D56"/>
<path d="M463.522 293.527C462.874 293.704 462.241 293.931 461.628 294.208C460.273 294.899 459.35 296.212 458.13 297.122C456.963 297.993 455.558 298.472 454.178 298.937C453.773 299.296 453.959 300.02 454.4 300.336C454.873 300.606 455.416 300.728 455.96 300.687C457.393 300.719 458.903 300.733 460.158 300.039C460.865 299.579 461.527 299.053 462.135 298.467C463.602 297.24 465.365 296.43 467.11 295.648C467.745 295.407 468.332 295.056 468.844 294.609C469.94 293.526 470.017 291.857 468.436 291.488C467.159 291.19 464.739 293.132 463.522 293.527Z" fill="#3F3D56"/>
<path d="M477.291 284.514C477.362 283.769 477.263 283.018 477.002 282.317C476.741 281.616 476.324 280.984 475.783 280.468C475.767 281.958 475.722 283.546 474.886 284.778C474.29 285.656 473.355 286.249 472.702 287.085C472.049 287.922 471.76 289.247 472.525 289.981C473.015 290.355 473.611 290.56 474.226 290.568C475.751 290.748 477.515 290.848 478.584 289.745C479.168 289.142 479.452 288.25 480.164 287.807C480.429 287.696 480.665 287.526 480.856 287.31C481.15 286.842 480.683 286.225 480.158 286.057C479.632 285.888 479.053 285.967 478.525 285.807C477.996 285.647 477.512 285.052 477.783 284.57" fill="#3F3D56"/>
<path d="M452.82 229.879C452.02 230.073 451.192 230.122 450.375 230.023C449.018 229.773 447.962 228.748 446.866 227.907C444.261 225.92 441.095 224.812 437.822 224.741C434.845 224.685 431.84 225.493 428.916 224.929C429.107 225.994 430.016 226.793 430.986 227.267C431.956 227.742 433.027 227.981 434.002 228.446C435.563 229.198 436.801 230.489 437.49 232.082C437.804 232.816 438.001 233.616 438.477 234.257C439.449 235.567 441.291 235.855 442.917 235.748C445.038 235.608 447.252 234.997 449.224 235.789C450.733 236.394 451.813 237.718 453.073 238.747C454.333 239.776 456.107 240.54 457.554 239.797C456.051 239.31 454.743 238.354 453.821 237.069C452.899 235.783 452.411 234.237 452.428 232.654C453.847 232.785 457.934 232.734 457.714 230.318C457.527 228.271 454.038 229.658 452.82 229.879Z" fill="#3F3D56"/>
<path d="M434.259 246.537C434.511 245.152 435.889 243.93 435.459 242.589C435.163 241.663 434.09 241.205 433.119 241.182C432.148 241.159 431.194 241.449 430.223 241.477C429.591 241.443 428.958 241.452 428.327 241.504C426.4 241.821 425.212 243.845 423.395 244.565C422.291 245.003 421.05 244.919 419.902 245.222C417.294 245.909 415.645 248.378 413.822 250.368C410.877 253.57 407.04 255.812 402.809 256.804C401.327 257.148 399.733 257.368 398.555 258.333C396.994 259.611 396.61 261.801 396.263 263.79C395.304 269.284 393.838 274.676 391.884 279.898L398.075 280.69C399.252 280.841 400.472 280.988 401.606 280.639C402.43 280.327 403.211 279.91 403.929 279.399C406.686 277.684 409.772 276.567 412.987 276.122C414.608 275.899 416.308 275.858 417.83 276.462C419.351 277.066 420.656 278.436 420.784 280.071C421.442 279.866 422.143 279.843 422.813 280.007C423.482 280.17 424.095 280.512 424.585 280.997C425.555 281.987 426.19 283.257 426.4 284.628C426.563 285.477 426.726 286.494 427.512 286.85C428.154 287.14 428.889 286.827 429.591 286.771C431.971 286.58 433.946 289.361 436.286 288.882C438.795 288.369 439.411 284.603 441.859 283.849C443.265 283.416 445.237 283.942 445.91 282.632C446.503 281.477 445.319 280.144 445.441 278.851C445.592 277.258 447.466 276.582 448.912 275.903C453.894 273.56 456.258 266.84 453.844 261.884C452.413 258.948 449.599 256.636 449.079 253.41C448.679 250.929 449.655 248.034 448.076 246.081C447.273 245.087 445.913 244.539 445.435 243.353C445.134 242.606 445.255 241.759 445.093 240.971C444.931 240.182 444.245 239.358 443.468 239.562C441.212 240.155 440.492 247.137 439.285 248.834C437.449 251.413 433.681 249.714 434.259 246.537Z" fill="#3F3D56"/>
<path d="M392.569 232.517C391.798 232.3 390.956 232.087 390.218 232.396C389.479 232.706 389.048 233.792 389.641 234.331C394.278 234.15 398.944 233.971 403.541 234.602C408.839 235.329 414.081 237.13 419.402 236.6C416.362 235.701 413.273 234.983 410.149 234.448L404.941 233.451C403.543 233.158 402.132 232.94 400.711 232.796C397.74 232.551 395.491 233.338 392.569 232.517Z" fill="#3F3D56"/>
<path d="M397.211 216.333C396.826 216.3 396.349 216.273 396.15 216.604C395.96 216.921 396.178 217.34 396.075 217.695C395.936 218.181 395.301 218.305 394.801 218.239C394.301 218.173 393.761 218.014 393.318 218.256C393.093 218.41 392.924 218.632 392.837 218.89C392.749 219.148 392.747 219.428 392.832 219.687C393.013 220.202 393.306 220.669 393.689 221.057C394.344 221.884 395.09 222.634 395.914 223.293C397.508 224.472 399.667 225.04 400.671 226.751C400.812 227.083 401.03 227.376 401.306 227.608C401.788 227.914 402.416 227.681 402.935 227.443L404.754 226.611C405.081 226.492 405.374 226.293 405.604 226.031C406.019 225.466 405.764 224.663 405.415 224.054C405.067 223.446 404.62 222.816 404.695 222.118C404.829 220.874 406.425 220.398 407.081 219.334C407.743 218.261 407.312 216.878 407.388 215.619C407.478 214.147 408.401 212.232 406.915 211.132C405.653 210.197 404.446 211.06 403.54 212.093C401.629 214.269 400.725 216.627 397.211 216.333Z" fill="#3F3D56"/>
<path d="M408.251 194.333C408.871 195.524 410.166 196.235 410.843 197.395C411.577 198.653 411.493 200.278 412.289 201.497C413.106 202.747 414.75 203.411 415.208 204.834C415.708 206.386 414.573 208.274 415.478 209.631C415.647 209.853 415.86 210.037 416.103 210.172C416.346 210.307 416.615 210.39 416.892 210.415C417.17 210.441 417.449 210.408 417.713 210.32C417.977 210.232 418.22 210.089 418.426 209.902C418.807 209.486 419.011 208.937 418.995 208.372C418.978 207.808 418.742 207.272 418.337 206.879C417.801 206.39 417.032 206.178 416.585 205.607C416.352 205.277 416.197 204.898 416.131 204.5C415.887 203.35 415.926 202.158 416.245 201.026C416.365 200.739 416.395 200.423 416.332 200.118C416.131 199.532 415.338 199.49 414.782 199.218C413.519 198.6 413.55 196.814 413.771 195.423C413.624 196.349 410.332 194.774 409.987 194.25C409.303 193.208 409.675 191.198 409.54 190.046C408.061 190.76 407.491 192.876 408.251 194.333Z" fill="#3F3D56"/>
<path d="M375.089 212.663C374.481 211.981 373.566 211.268 372.752 211.679C372.13 211.993 371.959 212.855 372.203 213.508C372.5 214.142 372.956 214.688 373.528 215.091C375.226 216.494 377.054 217.76 378.534 219.391C381.184 222.309 382.588 226.247 385.47 228.935C386.05 229.559 386.817 229.975 387.654 230.12C388.494 230.198 389.437 229.66 389.533 228.82C389.613 228.128 389.132 227.51 388.662 226.997C387.542 225.777 386.317 224.654 385.26 223.378C384.771 222.889 384.465 222.247 384.39 221.558C384.385 220.872 385.009 220.153 385.673 220.323C384.866 220.117 384.267 218.769 383.082 218.515C382.092 218.304 381.852 218.918 380.674 218.411C378.426 217.445 376.663 214.429 375.089 212.663Z" fill="#3F3D56"/>
<path d="M427.902 146.3C427.257 146.108 426.623 145.881 426.003 145.62C424.334 145.118 422.126 146.347 422.348 148.079C422.496 149.229 423.565 150.005 424.155 151.003C425.03 152.483 424.797 154.361 424.337 156.018C424.224 156.531 424.009 157.016 423.705 157.445C423.281 157.897 422.773 158.263 422.21 158.523C419.956 159.789 417.969 161.481 416.357 163.505C416.182 163.692 416.06 163.923 416.004 164.173C415.924 164.758 416.511 165.184 416.843 165.671C417.579 166.754 417.047 168.212 417.12 169.521C417.108 169.706 417.145 169.891 417.225 170.058C417.305 170.225 417.426 170.369 417.577 170.476C418.021 170.702 418.547 170.318 418.788 169.881C419.586 168.431 418.985 166.104 420.483 165.405C420.766 165.273 421.11 165.217 421.299 164.968C421.599 164.572 421.309 163.986 421.461 163.513C421.69 162.803 422.659 162.771 423.403 162.803C424.684 162.856 425.965 162.686 427.188 162.298C427.667 162.183 428.103 161.931 428.441 161.571C428.888 161.011 428.849 160.214 428.759 159.502C428.311 155.953 427.189 152.522 425.454 149.395C426.769 149.563 428.201 149.709 429.337 149.022C429.973 148.637 430.735 147.486 430.42 146.703C429.921 145.464 429.02 146.507 427.902 146.3Z" fill="#3F3D56"/>
<path d="M259.202 165.823C259.359 166.669 259.514 167.56 259.237 168.375C258.96 169.19 258.09 169.871 257.267 169.622C256.629 169.428 256.261 168.785 255.808 168.295C253.288 165.569 247.603 167.147 246.046 163.775C245.411 162.398 245.842 160.749 245.409 159.296C245.136 158.456 244.592 157.731 243.863 157.235C243.133 156.739 242.26 156.499 241.381 156.554C240.578 156.67 239.797 156.904 239.063 157.247C234.141 159.222 228.974 160.517 223.704 161.097C222.702 161.158 221.712 161.338 220.753 161.635C218.589 162.421 217.11 164.431 216.058 166.483C215.006 168.534 214.229 170.755 212.818 172.578C211.336 174.493 209.258 175.834 207.32 177.285C206.574 177.767 205.952 178.42 205.507 179.19C205.086 180.054 205.11 181.06 205.143 182.021L205.539 193.691C205.59 195.192 205.654 196.747 206.324 198.09C207.161 199.768 208.815 200.866 209.963 202.348C211.133 203.871 211.743 205.752 211.689 207.674C211.665 208.447 211.588 209.36 212.189 209.846C212.554 210.083 212.981 210.206 213.416 210.2L229.17 211.492C231.941 211.719 235.012 212.093 236.822 214.208C237.675 215.207 238.361 216.643 239.669 216.75C240.23 216.796 240.776 216.565 241.337 216.52C242.753 216.408 243.997 217.485 244.781 218.671C245.969 220.478 246.509 222.637 246.311 224.792C246.182 226.145 245.763 227.46 245.673 228.816C245.33 233.976 249.694 238.458 249.779 243.629C249.829 246.67 248.388 249.511 246.983 252.208C249.25 255.649 247.394 260.232 248.297 264.255C249.153 268.072 252.329 271.06 253.12 274.891C253.482 276.645 253.503 278.803 255.047 279.707C255.724 280.037 256.475 280.188 257.227 280.144C261.763 280.198 266.248 279.175 270.314 277.158C272.222 276.209 274.2 274.793 274.533 272.684C274.802 270.984 273.941 269.082 274.817 267.601C275.849 265.855 278.493 265.994 280.012 264.651C282.475 262.474 280.554 258.322 281.552 255.185C282.45 252.366 285.538 250.869 287.069 248.339C287.672 247.251 288.104 246.076 288.351 244.857C289.053 241.942 289.489 238.97 289.656 235.977C289.696 234.158 289.83 232.342 290.057 230.537C291.707 220.261 301.846 213.379 305.137 203.507C305.452 202.564 305.599 201.308 304.762 200.775C304.266 200.538 303.703 200.479 303.168 200.608L295.906 201.525C295.004 201.639 294.048 201.746 293.22 201.37C292.391 200.995 291.798 199.945 292.237 199.147C293.47 196.908 290.933 194.079 289.806 191.785C286.77 185.607 283.155 179.732 279.01 174.24C278.745 173.957 278.578 173.596 278.537 173.21L280.598 173.279C279.902 170.777 278.754 168.039 276.328 167.124C274.962 166.608 273.448 166.787 271.99 166.867C267.813 167.095 263.335 166.463 259.202 165.823Z" fill="#3F3D56"/>
<path d="M271.993 109.446C273.086 110.609 274.311 111.842 275.892 112.045C278.685 112.403 280.694 109.509 281.972 106.995C282.02 107.636 282.314 108.233 282.794 108.659C283.274 109.086 283.901 109.307 284.542 109.278C285.231 109.161 285.889 108.904 286.475 108.521C292.009 105.49 298.207 103.884 304.513 103.848C304.453 103.369 304.571 102.885 304.846 102.488C305.121 102.092 305.532 101.812 306.001 101.702C307.283 101.447 308.438 102.558 309.057 103.712C309.675 104.866 310.061 106.203 311.044 107.067C312.026 107.931 313.929 107.893 314.317 106.642C314.69 105.441 313.441 104.417 312.404 103.709C311.367 103.001 310.274 101.691 310.972 100.646C316.271 99.4709 321.603 98.2911 327.024 98.0575C327.948 98.0897 328.867 97.9309 329.726 97.591C330.553 97.1844 331.211 96.2614 330.988 95.3658C329.805 95.6445 328.566 95.5638 327.429 95.1339C326.291 94.7041 325.308 93.9445 324.603 92.9522C332.126 92.3301 340.128 91.7998 346.795 95.3472C347.595 97.0684 343.518 98.5004 344.609 100.053C344.957 100.548 345.654 100.606 346.258 100.617C350.891 100.703 355.551 100.788 360.132 100.087C361.806 99.8308 363.497 99.4692 365.178 99.677C367.977 100.023 370.372 101.895 373.126 102.505C374.247 102.753 375.504 102.762 376.449 102.108C377.394 101.455 377.8 99.9674 377.026 99.1181C379.619 96.5712 383.923 97.2024 387.344 98.4217C390.765 99.641 394.005 101.607 397.626 101.879C400.223 102.074 402.855 101.374 405.421 101.819C407.033 102.099 408.533 102.817 410.109 103.259C413.089 104.094 416.242 103.918 419.336 103.958C427.231 104.064 435.04 105.619 442.376 108.546C443.33 108.857 444.205 109.375 444.937 110.062C445.62 110.795 445.968 111.933 445.509 112.823L437.929 111.713C438.643 113.122 440.491 113.362 441.991 113.849C443.492 114.335 445.048 115.995 444.146 117.292C442.52 116.773 441.047 118.402 440.225 119.9C439.404 121.399 438.403 123.194 436.699 123.285C435.174 123.367 433.328 122.065 432.334 123.228C433.708 124.965 434.884 126.85 435.842 128.848C436.824 130.899 437.524 133.483 436.196 135.329C435.987 135.658 435.67 135.905 435.3 136.025C434.215 136.3 433.511 134.971 432.733 134.165C431.753 133.15 430.27 132.862 428.943 132.386C427.616 131.909 426.218 130.973 426.114 129.564C426.049 128.687 426.511 127.872 426.851 127.062C427.423 125.696 427.673 124.217 427.582 122.739C427.508 121.55 427.175 120.313 426.323 119.482C425.47 118.651 423.999 118.388 423.084 119.149C422.657 119.504 422.315 120.072 421.761 120.093C420.781 120.13 420.029 118.419 419.241 119.003C419.333 119.626 419.205 120.261 418.877 120.798C416.525 122.847 412.913 121.98 409.881 122.704C408.439 123.118 407.059 123.722 405.776 124.501C405.297 124.706 404.888 125.049 404.603 125.487C404.225 126.224 404.642 127.168 405.309 127.658C406.016 128.093 406.811 128.365 407.636 128.454C411.333 129.156 415.083 130.242 418.001 132.621C420.919 135 422.832 138.932 421.909 142.587L414.62 135.607C414.897 138.538 415.054 141.476 415.091 144.423C415.139 144.998 415.06 145.577 414.86 146.119C414.341 147.269 412.932 147.656 411.698 147.91C411.355 147.975 411.029 148.112 410.743 148.313C410.456 148.513 410.215 148.772 410.036 149.072C409.856 149.373 409.742 149.708 409.701 150.055C409.66 150.403 409.692 150.756 409.797 151.09C410.235 152.522 411.329 153.639 412.33 154.751C413.331 155.864 414.316 157.128 414.447 158.621C414.578 160.113 413.454 161.795 411.963 161.691C410.832 161.613 409.994 160.598 409.511 159.571C409.029 158.543 408.742 157.398 408.018 156.525C405.825 153.882 400.899 155.014 398.934 152.197C398.433 152.766 398.086 153.454 397.925 154.195C397.764 154.937 397.795 155.707 398.015 156.434C398.929 155.86 400.181 156.393 400.867 157.226C401.554 158.059 401.878 159.127 402.417 160.063C403.145 161.326 404.303 162.445 404.405 163.9C404.378 164.45 404.387 165.001 404.432 165.55C404.613 166.431 405.356 167.064 405.871 167.8C407.071 169.514 407.012 171.869 406.239 173.814C405.466 175.759 404.077 177.384 402.701 178.96C400.299 181.712 397.847 184.447 394.999 186.733C394.186 187.385 393.319 188.026 392.813 188.938C392.306 189.85 392.281 191.129 393.058 191.823C392.502 191.851 391.504 192.125 390.947 192.153C390.751 189.916 390.709 187.667 390.82 185.424C388.623 184.367 386.259 187.198 386.542 189.623C386.825 192.048 388.576 193.994 389.822 196.092C390.733 197.626 391.41 199.415 391.106 201.174C390.802 202.933 389.235 204.556 387.46 204.401C384.637 204.154 383.456 200.093 380.66 199.628C380.413 199.57 380.154 199.596 379.924 199.701C379.509 199.929 379.437 200.486 379.413 200.96C379.299 203.285 379.2 205.703 380.106 207.847C381.431 210.984 384.855 213.618 384.137 216.948C380.268 215.146 378.256 210.798 377.343 206.621C376.43 202.445 376.277 198.061 374.64 194.113C373.397 195.709 370.784 194.389 369.648 192.714C368.571 191.126 367.908 189.289 366.864 187.68C365.819 186.07 364.218 184.629 362.304 184.54C360.298 184.448 358.557 185.828 357.027 187.132C355.768 188.204 354.476 189.318 353.74 190.8C352.67 192.957 352.95 195.5 352.898 197.908C352.842 200.511 352.292 203.258 350.521 205.164C348.75 207.07 345.482 207.734 343.529 206.016C342.509 205.12 342.015 203.78 341.575 202.494C339.456 196.294 337.69 189.978 336.288 183.577C335.959 185.038 334.679 186.921 333.456 186.061C333.182 185.829 332.96 185.542 332.804 185.218C330.523 181.344 326.298 179.02 322.029 177.626C317.761 176.233 313.27 175.583 309.049 174.051C306.683 173.193 304.424 172.065 302.315 170.69C301.777 171.482 301.463 172.404 301.406 173.36C301.349 174.315 301.552 175.269 301.991 176.119C302.928 177.78 305.047 178.741 306.86 178.161C307.798 177.861 308.589 177.209 309.519 176.887C310.449 176.565 311.697 176.723 312.104 177.621C312.493 178.48 311.905 179.52 312.197 180.417C312.641 181.784 314.698 181.889 315.418 183.133C315.953 184.058 315.513 185.287 314.748 186.034C313.984 186.78 312.965 187.19 312.032 187.71C309.005 189.396 306.853 192.275 304.208 194.515C301.563 196.755 297.831 198.39 294.679 196.954C295.43 193.141 290.898 190.342 290.064 186.546C289.79 185.297 289.932 183.97 289.54 182.752C288.973 180.989 287.412 179.777 286.132 178.442C284.579 176.804 283.369 174.871 282.574 172.757C281.779 170.643 281.414 168.391 281.502 166.134C281.571 164.565 281.858 162.971 281.502 161.442C281.145 159.913 279.882 158.433 278.316 158.502C274.741 158.661 270.237 158.927 268.361 155.873C267.692 154.783 267.4 153.186 268.368 152.351C269.051 151.762 270.059 151.818 270.956 151.906L279.012 152.7C280.896 152.886 282.932 153.039 284.549 152.052C286.166 151.065 286.867 148.445 285.369 147.284C284.276 146.435 282.316 146.481 281.998 145.132C281.733 144.008 282.974 142.734 282.304 141.795C281.823 141.121 280.743 141.308 280.088 141.813C279.433 142.318 278.958 143.056 278.225 143.438C276.94 144.108 275.404 143.47 274.021 143.037C272.638 142.603 270.784 142.566 270.113 143.853C269.363 145.293 270.778 147.179 270.034 148.622C269.05 150.529 265.716 149.443 264.334 151.084C262.747 152.966 265.413 155.773 264.878 158.178C264.195 158.517 263.436 158.672 262.675 158.629C261.914 158.587 261.177 158.347 260.536 157.933C259.906 157.504 259.404 156.911 259.083 156.218C258.762 155.525 258.635 154.758 258.714 153.999C258.846 152.917 259.409 151.812 259.032 150.79C258.727 149.964 257.899 149.472 257.129 149.045L249.301 144.71C248.574 146.062 249.493 147.737 250.642 148.751C251.791 149.766 253.231 150.53 253.986 151.866C254.463 152.791 254.57 153.864 254.285 154.866C254 155.868 253.344 156.723 252.451 157.256C252.339 157.333 252.211 157.386 252.077 157.409C251.943 157.432 251.806 157.426 251.675 157.392C251.55 157.318 251.441 157.22 251.354 157.104C251.268 156.987 251.206 156.854 251.171 156.713C249.79 153.171 247.716 149.679 244.401 147.829C241.085 145.978 236.321 146.359 234.147 149.476C233.631 150.216 233.284 151.06 232.834 151.843C230.444 156.001 225.32 157.97 220.533 157.842C220.065 157.868 219.599 157.758 219.191 157.526C218.418 156.99 218.452 155.854 218.571 154.919L219.073 150.953C219.174 150.156 219.32 149.276 219.95 148.778C220.836 148.077 222.116 148.52 223.245 148.503C224.101 148.463 224.923 148.16 225.602 147.636C226.28 147.112 226.781 146.391 227.036 145.572C227.264 144.744 227.263 143.87 227.032 143.044C226.801 142.217 226.349 141.469 225.726 140.881C225.208 140.394 224.513 139.782 224.787 139.125C224.896 138.943 225.043 138.788 225.219 138.669C225.394 138.551 225.594 138.472 225.803 138.439C227.831 137.849 229.975 137.694 231.97 136.998C233.965 136.301 235.899 134.876 236.372 132.813C236.516 132.18 236.582 131.415 237.149 131.101C237.433 130.981 237.739 130.918 238.048 130.917C239.129 130.763 240.114 130.209 240.808 129.363C241.502 128.518 241.855 127.443 241.798 126.35C242.754 125.68 244.093 126.173 245.018 126.885C245.943 127.597 246.76 128.537 247.885 128.844C249.982 129.416 252.009 127.556 254.183 127.547C255.097 127.543 256.043 127.867 256.903 127.557C257.775 127.242 258.295 126.372 258.964 125.73C259.633 125.087 260.807 124.696 261.425 125.388L260.899 121.483C261.958 121.751 263.063 121.789 264.138 121.594C265.213 121.399 266.235 120.976 267.133 120.353L260.334 118.051C260.097 117.992 259.879 117.875 259.698 117.71C259.204 117.177 259.695 116.346 260.097 115.739C261.059 114.289 261.22 111.9 259.639 111.177C258.559 110.684 257.32 111.276 256.284 111.855L251.322 114.628C251.164 115.573 252.318 116.109 253.033 116.746C253.465 117.131 253.771 117.638 253.911 118.201C254.05 118.764 254.016 119.355 253.814 119.899C253.612 120.442 253.25 120.911 252.777 121.245C252.304 121.578 251.741 121.761 251.162 121.768C251.489 122.193 251.716 122.687 251.826 123.213C251.937 123.739 251.928 124.282 251.8 124.804L248.461 125.045C248.087 125.12 247.697 125.044 247.379 124.833C247.021 124.515 247.07 123.958 246.987 123.487C246.787 122.349 245.676 121.552 244.541 121.347C243.406 121.143 242.246 121.405 241.122 121.663C240.645 121.835 240.121 121.823 239.653 121.629C239.384 121.455 239.18 121.196 239.071 120.894C238.579 119.697 239.039 118.291 239.83 117.267C240.621 116.244 241.704 115.496 242.677 114.644C245.003 112.599 246.712 109.943 247.61 106.976C249.448 106.204 251.351 105.155 253.189 104.384C256.023 102.946 259.201 102.329 262.366 102.602L268.591 102.721C270.434 102.756 272.326 102.802 274.031 103.506C275.735 104.21 277.232 105.733 277.35 107.576C277.385 107.785 277.367 107.999 277.297 108.199C277.228 108.399 277.108 108.577 276.951 108.718C276.71 108.85 276.437 108.911 276.164 108.896C274.445 108.956 273.712 109.386 271.993 109.446Z" fill="#3F3D56"/>
<path d="M222.377 128.996C222.621 128.765 222.796 128.472 222.883 128.148C222.971 127.824 222.968 127.482 222.874 127.16C222.282 126.931 221.638 126.872 221.015 126.99C220.392 127.108 219.814 127.398 219.346 127.828C218.977 128.201 218.659 128.622 218.401 129.08C217.583 130.417 216.859 132.014 217.333 133.509C217.372 133.672 217.443 133.826 217.542 133.961C217.64 134.096 217.765 134.211 217.908 134.297C218.121 134.382 218.35 134.418 218.578 134.402C219.479 134.401 220.379 134.345 221.274 134.236C221.823 134.168 222.461 134.013 222.673 133.501C222.952 132.828 222.277 132.066 222.474 131.364C222.603 131.05 222.8 130.769 223.049 130.539C223.173 130.423 223.268 130.28 223.327 130.121C223.386 129.962 223.407 129.791 223.388 129.623C223.309 129.293 222.806 129.107 222.625 129.393" fill="#3F3D56"/>
<path d="M227.05 122.925C226.249 122.741 225.424 122.689 224.607 122.771C224.426 122.766 224.247 122.807 224.087 122.89C223.931 123.005 223.818 123.169 223.766 123.355C223.593 123.911 223.636 124.511 223.885 125.036C224.134 125.561 224.571 125.973 225.109 126.189C225.403 126.257 225.684 126.37 225.943 126.525C226.634 127.062 226.193 128.16 226.324 129.027C226.471 130 227.411 130.816 227.238 131.785C227.102 132.548 226.289 133.152 226.42 133.917C226.557 134.717 227.571 134.957 228.378 135.021C228.846 135.103 229.328 135.048 229.766 134.862C230.204 134.562 230.516 134.109 230.641 133.592C230.972 132.605 231.111 131.565 231.05 130.526C231.047 130.053 230.928 129.589 230.705 129.173C230.462 128.843 230.192 128.533 229.899 128.248C228.352 126.444 229.981 123.753 227.05 122.925Z" fill="#3F3D56"/>
<path opacity="0.8" d="M430.55 264.235C430.55 264.235 312.023 196.056 260.995 208.974C260.995 208.974 152.853 220.636 140.32 246.293C140.32 246.293 105.944 138.642 93.4105 135.054" stroke="#6C63FF" stroke-width="2" stroke-miterlimit="10"/>
<path opacity="0.8" d="M140.32 246.293C160.194 193.185 339.238 134.336 339.238 134.336C313.813 140.795 260.995 208.974 260.995 208.974C260.995 208.974 149.272 127.518 93.4105 135.054C93.4105 135.054 339.417 143.128 430.55 264.235" stroke="#6C63FF" stroke-width="2" stroke-miterlimit="10"/>
<path d="M93.4105 140.257C96.2781 140.257 98.6028 137.927 98.6028 135.054C98.6028 132.18 96.2781 129.851 93.4105 129.851C90.5429 129.851 88.2183 132.18 88.2183 135.054C88.2183 137.927 90.5429 140.257 93.4105 140.257Z" fill="#43F721"/>
<path d="M140.32 251.496C143.188 251.496 145.512 249.166 145.512 246.293C145.512 243.419 143.188 241.09 140.32 241.09C137.452 241.09 135.128 243.419 135.128 246.293C135.128 249.166 137.452 251.496 140.32 251.496Z" fill="#43F721"/>
<path d="M339.238 139.539C342.105 139.539 344.43 137.21 344.43 134.336C344.43 131.463 342.105 129.133 339.238 129.133C336.37 129.133 334.045 131.463 334.045 134.336C334.045 137.21 336.37 139.539 339.238 139.539Z" fill="#43F721"/>
<path d="M430.55 269.438C433.417 269.438 435.742 267.108 435.742 264.235C435.742 261.361 433.417 259.031 430.55 259.031C427.682 259.031 425.358 261.361 425.358 264.235C425.358 267.108 427.682 269.438 430.55 269.438Z" fill="#43F721"/>
<path d="M260.995 214.177C263.863 214.177 266.188 211.848 266.188 208.974C266.188 206.1 263.863 203.771 260.995 203.771C258.128 203.771 255.803 206.1 255.803 208.974C255.803 211.848 258.128 214.177 260.995 214.177Z" fill="#43F721"/>
</g>
<defs>
<clipPath id="clip0_48_332">
<rect width="510.464" height="379.963" fill="white" transform="translate(0.535889)"/>
</clipPath>
</defs>
</svg>
